<svg width="14" height="19" viewBox="0 0 14 19" fill="none" xmlns="http://www.w3.org/2000/svg">
<path d="M6.24683 17.8984C6.56323 18.3906 7.30151 18.3906 7.61792 17.8984C12.7507 10.5156 13.7 9.74219 13.7 7C13.7 3.27344 10.6765 0.25 6.94995 0.25C3.18823 0.25 0.199951 3.27344 0.199951 7C0.199951 9.74219 1.11401 10.5156 6.24683 17.8984ZM6.94995 9.8125C5.36792 9.8125 4.13745 8.58203 4.13745 7C4.13745 5.45312 5.36792 4.1875 6.94995 4.1875C8.49683 4.1875 9.76245 5.45312 9.76245 7C9.76245 8.58203 8.49683 9.8125 6.94995 9.8125Z" fill="#FFB30E"/>
</svg>
